<?xml version="1.0" encoding="UTF-8"?>
<svg width="32" height="32" viewBox="0 0 32 32" fill="none" xmlns="http://www.w3.org/2000/svg">
    <!-- Background circle (globe) -->
    <circle cx="16" cy="16" r="15" fill="#03A9F4"/>
    
    <!-- Latitude/longitude lines -->
    <path d="M16 1C16 1 16 31 16 31" stroke="white" stroke-width="1" stroke-opacity="0.3"/>
    <path d="M1 16C1 16 31 16 31 16" stroke="white" stroke-width="1" stroke-opacity="0.3"/>
    <path d="M4 16C4 9.37258 9.37258 4 16 4" stroke="white" stroke-width="1" stroke-opacity="0.3"/>
    <path d="M28 16C28 22.6274 22.6274 28 16 28" stroke="white" stroke-width="1" stroke-opacity="0.3"/>
    
    <!-- Radio waves -->
    <path d="M16 12C18.2091 12 20 13.7909 20 16" stroke="white" stroke-width="2" stroke-linecap="round"/>
    <path d="M16 8C20.4183 8 24 11.5817 24 16" stroke="white" stroke-width="2" stroke-linecap="round"/>
    <path d="M16 4C22.6274 4 28 9.37258 28 16" stroke="white" stroke-width="2" stroke-linecap="round"/>
    
    <!-- Center dot -->
    <circle cx="16" cy="16" r="2" fill="white"/>
</svg>